<svg xmlns="http://www.w3.org/2000/svg" viewBox="0 0 32 32">
  <path d="M16 10.5a5.5 5.5 0 100 11 5.5 5.5 0 000-11zm0 8a2.5 2.5 0 110-5 2.5 2.5 0 010 5z" fill="#6b7280"/>
  <path d="M27.3 13.6l-2-.3a9.6 9.6 0 00-.8-1.9l1.2-1.7a1 1 0 00-.1-1.3l-2-2a1 1 0 00-1.3-.1l-1.7 1.2a9.6 9.6 0 00-1.9-.8l-.3-2a1 1 0 00-1-.8h-2.8a1 1 0 00-1 .8l-.3 2a9.6 9.6 0 00-1.9.8L9.7 6.3a1 1 0 00-1.3.1l-2 2a1 1 0 00-.1 1.3l1.2 1.7a9.6 9.6 0 00-.8 1.9l-2 .3a1 1 0 00-.8 1v2.8a1 1 0 00.8 1l2 .3a9.6 9.6 0 00.8 1.9l-1.2 1.7a1 1 0 00.1 1.3l2 2a1 1 0 001.3.1l1.7-1.2a9.6 9.6 0 001.9.8l.3 2a1 1 0 001 .8h2.8a1 1 0 001-.8l.3-2a9.6 9.6 0 001.9-.8l1.7 1.2a1 1 0 001.3-.1l2-2a1 1 0 00.1-1.3l-1.2-1.7a9.6 9.6 0 00.8-1.9l2-.3a1 1 0 00.8-1v-2.8a1 1 0 00-.8-1zM16 21a5 5 0 110-10 5 5 0 010 10z" fill="#0a6ab6"/>
</svg>
